<svg width="100" height="38" viewBox="0 0 100 38" fill="none" xmlns="http://www.w3.org/2000/svg">
<path fill-rule="evenodd" clip-rule="evenodd" d="M74.1107 9.4634C74.6814 10.5281 74.4711 10.829 72.2451 12.131C69.0015 14.0283 65.1702 18.1938 64.3385 20.7272C62.9284 25.021 66.0791 28.8879 70.9115 28.7952C73.5459 28.7445 74.4153 27.9809 71 27.4089C70 27.2415 66.9825 26.0845 69 22.1889C70.0134 20.2333 72.6896 18.4725 74.7761 17.5232C76.0833 16.9291 78.7247 16.0247 79.4221 16.9763C80.4087 18.3238 81.8293 12.8324 80.8965 10.7887C80.5226 9.97067 75.2918 9.46573 75.4501 9.30713C75.852 8.90656 80.2802 10.1963 80.8965 10.7887C81.1739 11.0564 82.7142 12.4855 81.5512 14.0055C80.3906 15.5233 79.4326 17.0544 79.4221 17.4095C79.4122 17.764 79.0354 17.5693 78.5857 16.9763C77.7989 15.9396 77.6517 15.9606 74.7761 17.5232C71.9186 19.0754 67.3578 23.3878 67.9489 23.9779C68.1031 24.1324 69.4694 21.3788 70.9115 19.9398C72.3537 18.5002 74.3946 16.9956 75.4501 16.451C77.2142 15.5402 77.3678 17.1192 78.0027 17.9862C78.9659 19.301 79.0851 19.2375 80.8965 16.451C81.7826 15.0883 83.1763 13.2563 83.9934 12.3805L85.4789 10.7887L83.1903 9.8284C81.9309 9.30072 79.2288 8.73222 77.1844 8.56605C73.5739 8.27218 73.4857 8.29783 74.1107 9.4634ZM64.0014 22.9089C64.3437 23.5468 68.561 32.724 69.4991 33.2085C71.5068 34.2446 73.127 29.1908 73.127 28.4089C73.127 28.0882 67.9967 27.4089 67.5002 27.4089C67.0037 27.4089 69.3847 32.2669 68.5815 31.4651C74.1107 36.9845 64.5002 30.9089 64.0014 22.9089Z" fill="black"/>
<path d="M74.7761 17.5232C72.6896 18.4725 70.0134 20.2333 69 22.1889C66.9825 26.0845 70 27.2415 71 27.4089C74.4153 27.9809 73.5459 28.7445 70.9115 28.7952C66.0791 28.8879 62.9284 25.021 64.3385 20.7272C65.1702 18.1938 69.0015 14.0283 72.2451 12.131C74.4711 10.829 74.6814 10.5281 74.1107 9.4634C73.4857 8.29783 73.5739 8.27218 77.1844 8.56605C79.2288 8.73222 81.9309 9.30072 83.1903 9.8284L85.4789 10.7887L83.9934 12.3805C83.1763 13.2563 81.7826 15.0883 80.8965 16.451C79.0851 19.2375 78.9659 19.301 78.0027 17.9862C77.3678 17.1192 77.2142 15.5402 75.4501 16.451C74.3946 16.9956 72.3537 18.5002 70.9115 19.9398C69.4694 21.3788 68.1031 24.1324 67.9489 23.9779C67.3578 23.3878 71.9186 19.0754 74.7761 17.5232ZM74.7761 17.5232C76.0833 16.9291 78.7247 16.0247 79.4221 16.9763C80.4087 18.3238 81.8293 12.8324 80.8965 10.7887M74.7761 17.5232C77.6517 15.9606 77.7989 15.9396 78.5857 16.9763C79.0354 17.5693 79.4122 17.764 79.4221 17.4095C79.4326 17.0544 80.3906 15.5233 81.5512 14.0055C82.7142 12.4855 81.1739 11.0564 80.8965 10.7887M80.8965 10.7887C80.5226 9.97067 75.2918 9.46573 75.4501 9.30713C75.852 8.90656 80.2802 10.1963 80.8965 10.7887ZM64.0014 22.9089C64.3437 23.5468 68.561 32.724 69.4991 33.2085C71.5068 34.2446 73.127 29.1908 73.127 28.4089C73.127 28.0882 67.9967 27.4089 67.5002 27.4089C67.0037 27.4089 69.3847 32.2669 68.5815 31.4651C74.1107 36.9845 64.5002 30.9089 64.0014 22.9089Z" stroke="black" stroke-width="1.5"/>
<g filter="url(#filter0_d_688_790)">
<rect x="74" y="15.2715" width="8.94758" height="15.4549" rx="2" transform="rotate(-21.4466 74 15.2715)" fill="#E3E3E3"/>
</g>
<g filter="url(#filter1_d_688_790)">
<path fill-rule="evenodd" clip-rule="evenodd" d="M86.3683 32.5366C85.7976 31.4719 86.0079 31.171 88.2339 29.869C91.4775 27.9717 95.3088 23.8062 96.1405 21.2728C97.5506 16.979 94.3999 13.1121 89.5675 13.2048C86.9331 13.2555 86.0637 14.0191 89.479 14.5911C90.479 14.7585 93.4965 15.9155 91.479 19.8111C90.4656 21.7667 87.7894 23.5275 85.7029 24.4768C84.3957 25.0709 81.7543 25.9753 81.0569 25.0237C80.0703 23.6762 78.6497 29.1676 79.5826 31.2113C79.9564 32.0293 85.1872 32.5343 85.0289 32.6929C84.627 33.0934 80.1988 31.8037 79.5826 31.2113C79.3051 30.9436 77.7648 29.5145 78.9278 27.9944C80.0884 26.4767 81.0464 24.9456 81.0569 24.5905C81.0668 24.236 81.4436 24.4307 81.8933 25.0237C82.6801 26.0604 82.8273 26.0394 85.7029 24.4768C88.5604 22.9246 93.1212 18.6122 92.5301 18.0221C92.3759 17.8676 91.0097 20.6212 89.5675 22.0602C88.1253 23.4998 86.0844 25.0044 85.0289 25.549C83.2648 26.4598 83.1112 24.8808 82.4763 24.0138C81.5131 22.699 81.3939 22.7625 79.5826 25.549C78.6964 26.9117 77.3027 28.7437 76.4856 29.6195L75.0001 31.2113L77.2887 32.1716C78.5481 32.6993 81.2502 33.2678 83.2946 33.434C86.9051 33.7278 86.9933 33.7022 86.3683 32.5366ZM96.4776 19.0911C96.1353 18.4532 91.918 9.27601 90.9799 8.79147C88.9723 7.75535 87.352 12.8092 87.352 13.5911C87.352 13.9118 92.4823 14.5911 92.9788 14.5911C93.4753 14.5911 91.0944 9.73314 91.8975 10.5349C86.3683 5.01549 95.9788 11.0911 96.4776 19.0911Z" fill="#198A68"/>
<path d="M85.7029 24.4768C87.7894 23.5275 90.4656 21.7667 91.479 19.8111C93.4965 15.9155 90.479 14.7585 89.479 14.5911C86.0637 14.0191 86.9331 13.2555 89.5675 13.2048C94.3999 13.1121 97.5506 16.979 96.1405 21.2728C95.3088 23.8062 91.4775 27.9717 88.2339 29.869C86.0079 31.171 85.7976 31.4719 86.3683 32.5366C86.9933 33.7022 86.9051 33.7278 83.2946 33.434C81.2502 33.2678 78.5481 32.6993 77.2887 32.1716L75.0001 31.2113L76.4856 29.6195C77.3027 28.7437 78.6964 26.9117 79.5826 25.549C81.3939 22.7625 81.5131 22.699 82.4763 24.0138C83.1112 24.8808 83.2648 26.4598 85.0289 25.549C86.0844 25.0044 88.1253 23.4998 89.5675 22.0602C91.0097 20.6212 92.3759 17.8676 92.5301 18.0221C93.1212 18.6122 88.5604 22.9246 85.7029 24.4768ZM85.7029 24.4768C84.3957 25.0709 81.7543 25.9753 81.0569 25.0237C80.0703 23.6762 78.6497 29.1676 79.5826 31.2113M85.7029 24.4768C82.8273 26.0394 82.6801 26.0604 81.8933 25.0237C81.4436 24.4307 81.0668 24.236 81.0569 24.5905C81.0464 24.9456 80.0884 26.4767 78.9278 27.9944C77.7648 29.5145 79.3051 30.9436 79.5826 31.2113M79.5826 31.2113C79.9564 32.0293 85.1872 32.5343 85.0289 32.6929C84.627 33.0934 80.1988 31.8037 79.5826 31.2113ZM96.4776 19.0911C96.1353 18.4532 91.918 9.27601 90.9799 8.79147C88.9723 7.75535 87.352 12.8092 87.352 13.5911C87.352 13.9118 92.4823 14.5911 92.9788 14.5911C93.4753 14.5911 91.0944 9.73314 91.8975 10.5349C86.3683 5.01549 95.9788 11.0911 96.4776 19.0911Z" stroke="#198A68" stroke-width="1.5"/>
</g>
<path d="M9.856 31.48C8.59733 31.48 7.43467 31.3413 6.368 31.064C5.32267 30.7867 4.416 30.328 3.648 29.688C2.88 29.0267 2.272 28.1307 1.824 27C1.39733 25.8693 1.184 24.4613 1.184 22.776C1.184 20.152 1.824 18.0827 3.104 16.568C4.40533 15.0533 6.34667 14.296 8.928 14.296C9.26933 14.296 9.71733 14.328 10.272 14.392C10.8267 14.4347 11.4027 14.5627 12 14.776C12.5973 14.9893 13.1307 15.352 13.6 15.864L12.64 17.336V8.152H17.376V26.776C17.376 27.5653 17.1627 28.2587 16.736 28.856C16.3093 29.432 15.7333 29.912 15.008 30.296C14.304 30.68 13.504 30.968 12.608 31.16C11.712 31.3733 10.7947 31.48 9.856 31.48ZM10.048 27.48C10.816 27.48 11.4347 27.384 11.904 27.192C12.3947 26.9787 12.64 26.6693 12.64 26.264V18.808C12.256 18.5947 11.84 18.4347 11.392 18.328C10.9653 18.2 10.5493 18.136 10.144 18.136C9.248 18.136 8.49067 18.2853 7.872 18.584C7.25333 18.8827 6.784 19.384 6.464 20.088C6.16533 20.792 6.016 21.7413 6.016 22.936C6.016 23.8747 6.144 24.6853 6.4 25.368C6.656 26.0293 7.072 26.552 7.648 26.936C8.24533 27.2987 9.04533 27.48 10.048 27.48ZM20.268 31V15.032H25.036L25.068 31H20.268ZM20.172 12.6V8.92H25.1V12.6H20.172ZM50.467 31.48C49.315 31.48 48.323 31.352 47.491 31.096C46.6803 30.8613 45.9123 30.5947 45.187 30.296V26.104C45.635 26.4027 46.1363 26.712 46.691 27.032C47.2457 27.3307 47.8537 27.576 48.515 27.768C49.1977 27.96 49.9123 28.056 50.659 28.056C51.427 28.056 51.9603 27.928 52.259 27.672C52.579 27.3947 52.739 27.064 52.739 26.68C52.739 26.3173 52.579 26.0293 52.259 25.816C51.939 25.5813 51.523 25.3893 51.011 25.24C50.499 25.0907 49.955 24.952 49.379 24.824C48.867 24.7173 48.355 24.5573 47.843 24.344C47.331 24.1093 46.8723 23.8 46.467 23.416C46.0617 23.032 45.731 22.5627 45.475 22.008C45.2403 21.432 45.123 20.7387 45.123 19.928C45.123 18.8827 45.3257 18.0187 45.731 17.336C46.1363 16.632 46.6697 16.0667 47.331 15.64C47.9923 15.2133 48.707 14.9147 49.475 14.744C50.243 14.552 50.9897 14.4667 51.715 14.488C53.0377 14.5307 54.083 14.68 54.851 14.936C55.6403 15.1707 56.355 15.48 56.995 15.864V19.608C56.2697 19.2027 55.5443 18.8293 54.819 18.488C54.115 18.1253 53.3043 17.944 52.387 17.944C51.555 17.944 50.9577 18.072 50.595 18.328C50.2323 18.584 50.051 18.9253 50.051 19.352C50.051 19.7573 50.1683 20.0773 50.403 20.312C50.659 20.5467 50.9897 20.7387 51.395 20.888C51.8003 21.016 52.2483 21.144 52.739 21.272C53.2723 21.4 53.8163 21.56 54.371 21.752C54.947 21.9227 55.4803 22.1787 55.971 22.52C56.483 22.84 56.8883 23.2987 57.187 23.896C57.507 24.472 57.667 25.24 57.667 26.2C57.6457 27.5013 57.2937 28.5467 56.611 29.336C55.9283 30.104 55.043 30.6587 53.955 31C52.8883 31.32 51.7257 31.48 50.467 31.48Z" fill="black"/>
<path d="M35.3122 31.48C34.4162 31.48 33.5202 31.416 32.6242 31.288C31.7496 31.1813 30.9496 30.9787 30.2242 30.68C29.5202 30.36 28.9549 29.9333 28.5282 29.4C28.1016 28.8453 27.8882 28.1307 27.8882 27.256V8.824H32.5602V17.656L31.6642 16.152C32.0482 15.704 32.5389 15.352 33.1362 15.096C33.7336 14.8187 34.3416 14.6267 34.9602 14.52C35.5789 14.4133 36.0909 14.36 36.4962 14.36C38.8856 14.36 40.6989 15.0853 41.9362 16.536C43.1949 17.9653 43.8242 20.0667 43.8242 22.84C43.8242 24.4613 43.6109 25.8267 43.1842 26.936C42.7576 28.0453 42.1603 28.9307 41.3923 29.592C40.6242 30.2533 39.7282 30.7333 38.7042 31.032C37.6802 31.3307 36.5496 31.48 35.3122 31.48ZM35.2482 27.512C36.1869 27.512 36.9336 27.3307 37.4882 26.968C38.0429 26.584 38.4376 26.0613 38.6722 25.4C38.9282 24.7387 39.0562 23.9813 39.0562 23.128C39.0562 21.912 38.8962 20.9413 38.5762 20.216C38.2562 19.4907 37.8189 18.968 37.2642 18.648C36.7096 18.328 36.0696 18.168 35.3442 18.168C34.9176 18.168 34.4482 18.2213 33.9362 18.328C33.4242 18.4347 32.9656 18.6053 32.5602 18.84V26.008C32.5602 26.392 32.6776 26.6907 32.9122 26.904C33.1469 27.1173 33.4669 27.2773 33.8722 27.384C34.2989 27.4693 34.7576 27.512 35.2482 27.512Z" fill="#198A68"/>
<defs>
<filter id="filter0_d_688_790" x="73.5923" y="12.5922" width="14.7944" height="19.4719" filterUnits="userSpaceOnUse" color-interpolation-filters="sRGB">
<feFlood flood-opacity="0" result="BackgroundImageFix"/>
<feColorMatrix in="SourceAlpha" type="matrix" values="0 0 0 0 0 0 0 0 0 0 0 0 0 0 0 0 0 0 127 0" result="hardAlpha"/>
<feOffset dy="2"/>
<feGaussianBlur stdDeviation="0.5"/>
<feComposite in2="hardAlpha" operator="out"/>
<feColorMatrix type="matrix" values="0 0 0 0 0 0 0 0 0 0 0 0 0 0 0 0 0 0 0.46 0"/>
<feBlend mode="normal" in2="BackgroundImageFix" result="effect1_dropShadow_688_790"/>
<feBlend mode="normal" in="SourceGraphic" in2="effect1_dropShadow_688_790" result="shape"/>
</filter>
<filter id="filter1_d_688_790" x="71.7175" y="6.65955" width="27.5115" height="30.6818" filterUnits="userSpaceOnUse" color-interpolation-filters="sRGB">
<feFlood flood-opacity="0" result="BackgroundImageFix"/>
<feColorMatrix in="SourceAlpha" type="matrix" values="0 0 0 0 0 0 0 0 0 0 0 0 0 0 0 0 0 0 127 0" result="hardAlpha"/>
<feOffset dy="1"/>
<feGaussianBlur stdDeviation="1"/>
<feComposite in2="hardAlpha" operator="out"/>
<feColorMatrix type="matrix" values="0 0 0 0 0 0 0 0 0 0 0 0 0 0 0 0 0 0 0.25 0"/>
<feBlend mode="normal" in2="BackgroundImageFix" result="effect1_dropShadow_688_790"/>
<feBlend mode="normal" in="SourceGraphic" in2="effect1_dropShadow_688_790" result="shape"/>
</filter>
</defs>
</svg>
