<svg width="44" height="39" viewBox="0 0 44 39" fill="none" xmlns="http://www.w3.org/2000/svg">
<rect width="44" height="39" fill="white"/>
<path fill-rule="evenodd" clip-rule="evenodd" d="M16.1107 8.09334C16.6814 9.15804 16.4711 9.4589 14.2451 10.7609C11.0015 12.6582 7.17024 16.8237 6.33846 19.3572C4.9284 23.6509 8.07913 27.5179 12.9115 27.4252C15.5459 27.3745 16.4153 26.6109 13 26.0389C12 25.8714 8.98246 24.7144 11 20.8189C12.0134 18.8633 14.6896 17.1024 16.7761 16.1532C18.0833 15.559 20.7247 14.6547 21.4221 15.6063C22.4087 16.9537 23.8293 11.4623 22.8965 9.41867C22.5226 8.60062 17.2918 8.09567 17.4501 7.93708C17.852 7.53651 22.2802 8.82627 22.8965 9.41867C23.1739 9.6863 24.7142 11.1154 23.5512 12.6355C22.3906 14.1532 21.4326 15.6844 21.4221 16.0395C21.4122 16.394 21.0354 16.1992 20.5857 15.6063C19.7989 14.5696 19.6517 14.5905 16.7761 16.1532C13.9186 17.7053 8.90887 19.0399 9.5 19.6299C9.65421 19.7845 11.4694 20.0087 12.9115 18.5697C14.3537 17.1301 16.3946 15.6255 17.4501 15.0809C19.2142 14.1701 19.3678 15.7491 20.0027 16.6161C20.9659 17.931 21.0851 17.8674 22.8965 15.0809C23.7826 13.7183 25.1763 11.8862 25.9934 11.0105L26.4998 10.4678C26.9747 9.95895 26.7974 9.13273 26.1557 8.86344L25.1903 8.45835C23.9309 7.93066 21.2288 7.36217 19.1844 7.19599C15.5739 6.90212 15.4857 6.92778 16.1107 8.09334ZM6.00137 21.5389C6.34366 22.1768 11.0619 31.6454 12 32.1299C14.0076 33.1661 15.2216 27.7154 15.2216 26.9335C15.2216 26.6128 9.99674 26.0389 9.50024 26.0389C9.00374 26.0389 11.3847 30.8968 10.5815 30.0951C16.1107 35.6145 6.50024 29.5389 6.00137 21.5389Z" fill="black"/>
<path d="M16.7761 16.1532C14.6896 17.1024 12.0134 18.8633 11 20.8189C8.98246 24.7144 12 25.8714 13 26.0389C16.4153 26.6109 15.5459 27.3745 12.9115 27.4252C8.07913 27.5179 4.9284 23.6509 6.33846 19.3572C7.17024 16.8237 11.0015 12.6582 14.2451 10.7609C16.4711 9.4589 16.6814 9.15804 16.1107 8.09334C15.4857 6.92778 15.5739 6.90212 19.1844 7.19599C21.2288 7.36217 23.9309 7.93066 25.1903 8.45835L26.1557 8.86344C26.7974 9.13273 26.9747 9.95895 26.4998 10.4678L25.9934 11.0105C25.1763 11.8862 23.7826 13.7183 22.8965 15.0809C21.0851 17.8674 20.9659 17.931 20.0027 16.6161C19.3678 15.7491 19.2142 14.1701 17.4501 15.0809C16.3946 15.6255 14.3537 17.1301 12.9115 18.5697C11.4694 20.0087 9.65421 19.7845 9.5 19.6299C8.90887 19.0399 13.9186 17.7053 16.7761 16.1532ZM16.7761 16.1532C18.0833 15.559 20.7247 14.6547 21.4221 15.6063C22.4087 16.9537 23.8293 11.4623 22.8965 9.41867M16.7761 16.1532C19.6517 14.5905 19.7989 14.5696 20.5857 15.6063C21.0354 16.1992 21.4122 16.394 21.4221 16.0395C21.4326 15.6844 22.3906 14.1532 23.5512 12.6355C24.7142 11.1154 23.1739 9.6863 22.8965 9.41867M22.8965 9.41867C22.5226 8.60062 17.2918 8.09567 17.4501 7.93708C17.852 7.53651 22.2802 8.82627 22.8965 9.41867ZM6.00137 21.5389C6.34366 22.1768 11.0619 31.6454 12 32.1299C14.0076 33.1661 15.2216 27.7154 15.2216 26.9335C15.2216 26.6128 9.99674 26.0389 9.50024 26.0389C9.00374 26.0389 11.3847 30.8968 10.5815 30.0951C16.1107 35.6145 6.50024 29.5389 6.00137 21.5389Z" stroke="black" stroke-width="1.5"/>
<g filter="url(#filter0_d_774_693)">
<rect x="16" y="13.9015" width="8.94758" height="15.4549" rx="2" transform="rotate(-21.4466 16 13.9015)" fill="white"/>
</g>
<g filter="url(#filter1_d_774_693)">
<path fill-rule="evenodd" clip-rule="evenodd" d="M28.3683 31.1665C27.7976 30.1018 28.0079 29.801 30.2339 28.499C33.4775 26.6016 37.3088 22.4362 38.1405 19.9027C39.5506 15.6089 36.3999 11.742 31.5675 11.8347C28.9331 11.8854 28.0637 12.649 31.479 13.221C32.479 13.3885 35.4965 14.5455 33.479 18.441C32.4656 20.3966 29.7894 22.1574 27.7029 23.1067C26.3957 23.7008 23.7543 24.6052 23.0569 23.6536C22.0703 22.3061 20.6497 27.7975 21.5826 29.8412C21.9564 30.6593 27.1872 31.1642 27.0289 31.3228C26.627 31.7234 22.1988 30.4336 21.5826 29.8412C21.3051 29.5736 19.7648 28.1445 20.9278 26.6244C22.0884 25.1066 23.0464 23.5755 23.0569 23.2204C23.0668 22.8659 23.4436 23.0606 23.8933 23.6536C24.6801 24.6903 24.8273 24.6693 27.7029 23.1067C30.5604 21.5545 35.4036 19.0311 34.8125 18.441C34.6583 18.2865 33.0097 19.2511 31.5675 20.6902C30.1253 22.1298 28.0844 23.6344 27.0289 24.179C25.2648 25.0897 25.1112 23.5108 24.4763 22.6437C23.5131 21.3289 23.3939 21.3925 21.5826 24.179C20.6964 25.5416 19.3027 27.3736 18.4856 28.2494L17.9792 28.7921C17.5043 29.3009 17.6816 30.1271 18.3233 30.3964L19.2887 30.8015C20.5481 31.3292 23.2502 31.8977 25.2946 32.0639C28.9051 32.3578 28.9933 32.3321 28.3683 31.1665ZM38.4776 17.721C38.1353 17.0831 33.4381 7.61447 32.5 7.12994C30.4924 6.09381 29.2471 11.5706 29.2471 12.3525C29.2471 12.6731 34.4823 13.221 34.9788 13.221C35.4753 13.221 33.0944 8.36307 33.8975 9.1648C28.3683 3.64541 37.9788 9.72099 38.4776 17.721Z" fill="black"/>
<path d="M27.7029 23.1067C29.7894 22.1574 32.4656 20.3966 33.479 18.441C35.4965 14.5455 32.479 13.3885 31.479 13.221C28.0637 12.649 28.9331 11.8854 31.5675 11.8347C36.3999 11.742 39.5506 15.6089 38.1405 19.9027C37.3088 22.4362 33.4775 26.6016 30.2339 28.499C28.0079 29.801 27.7976 30.1018 28.3683 31.1665C28.9933 32.3321 28.9051 32.3578 25.2946 32.0639C23.2502 31.8977 20.5481 31.3292 19.2887 30.8015L18.3233 30.3964C17.6816 30.1271 17.5043 29.3009 17.9792 28.7921L18.4856 28.2494C19.3027 27.3736 20.6964 25.5416 21.5826 24.179C23.3939 21.3925 23.5131 21.3289 24.4763 22.6437C25.1112 23.5108 25.2648 25.0897 27.0289 24.179C28.0844 23.6344 30.1253 22.1298 31.5675 20.6902C33.0097 19.2511 34.6583 18.2865 34.8125 18.441C35.4036 19.0311 30.5604 21.5545 27.7029 23.1067ZM27.7029 23.1067C26.3957 23.7008 23.7543 24.6052 23.0569 23.6536C22.0703 22.3061 20.6497 27.7975 21.5826 29.8412M27.7029 23.1067C24.8273 24.6693 24.6801 24.6903 23.8933 23.6536C23.4436 23.0606 23.0668 22.8659 23.0569 23.2204C23.0464 23.5755 22.0884 25.1066 20.9278 26.6244C19.7648 28.1445 21.3051 29.5736 21.5826 29.8412M21.5826 29.8412C21.9564 30.6593 27.1872 31.1642 27.0289 31.3228C26.627 31.7234 22.1988 30.4336 21.5826 29.8412ZM38.4776 17.721C38.1353 17.0831 33.4381 7.61447 32.5 7.12994C30.4924 6.09381 29.2471 11.5706 29.2471 12.3525C29.2471 12.6731 34.4823 13.221 34.9788 13.221C35.4753 13.221 33.0944 8.36307 33.8975 9.1648C28.3683 3.64541 37.9788 9.72099 38.4776 17.721Z" stroke="black" stroke-width="1.5"/>
</g>
<defs>
<filter id="filter0_d_774_693" x="15.5923" y="11.2222" width="14.7944" height="19.4718" filterUnits="userSpaceOnUse" color-interpolation-filters="sRGB">
<feFlood flood-opacity="0" result="BackgroundImageFix"/>
<feColorMatrix in="SourceAlpha" type="matrix" values="0 0 0 0 0 0 0 0 0 0 0 0 0 0 0 0 0 0 127 0" result="hardAlpha"/>
<feOffset dy="2"/>
<feGaussianBlur stdDeviation="0.5"/>
<feComposite in2="hardAlpha" operator="out"/>
<feColorMatrix type="matrix" values="0 0 0 0 0 0 0 0 0 0 0 0 0 0 0 0 0 0 0.46 0"/>
<feBlend mode="normal" in2="BackgroundImageFix" result="effect1_dropShadow_774_693"/>
<feBlend mode="normal" in="SourceGraphic" in2="effect1_dropShadow_774_693" result="shape"/>
</filter>
<filter id="filter1_d_774_693" x="14.9598" y="5.24995" width="26.2692" height="30.7213" filterUnits="userSpaceOnUse" color-interpolation-filters="sRGB">
<feFlood flood-opacity="0" result="BackgroundImageFix"/>
<feColorMatrix in="SourceAlpha" type="matrix" values="0 0 0 0 0 0 0 0 0 0 0 0 0 0 0 0 0 0 127 0" result="hardAlpha"/>
<feOffset dy="1"/>
<feGaussianBlur stdDeviation="1"/>
<feComposite in2="hardAlpha" operator="out"/>
<feColorMatrix type="matrix" values="0 0 0 0 0 0 0 0 0 0 0 0 0 0 0 0 0 0 0.25 0"/>
<feBlend mode="normal" in2="BackgroundImageFix" result="effect1_dropShadow_774_693"/>
<feBlend mode="normal" in="SourceGraphic" in2="effect1_dropShadow_774_693" result="shape"/>
</filter>
</defs>
</svg>
