<svg width="100" height="47" viewBox="0 0 100 47" fill="none" xmlns="http://www.w3.org/2000/svg">
<path d="M5.088 44.21C4.388 44.21 3.77667 44.07 3.254 43.79C2.73133 43.5007 2.32533 43.0807 2.036 42.53C1.74667 41.9793 1.602 41.3167 1.602 40.542C1.602 39.31 1.896 38.372 2.484 37.728C3.08133 37.0747 3.91667 36.748 4.99 36.748C5.76467 36.748 6.38533 36.916 6.852 37.252C7.328 37.588 7.67333 38.0687 7.888 38.694C8.112 39.31 8.21933 40.0473 8.21 40.906H2.75L2.61 39.702H6.796L6.46 40.206C6.44133 39.4687 6.31067 38.9413 6.068 38.624C5.83467 38.2973 5.45667 38.134 4.934 38.134C4.61667 38.134 4.33667 38.2087 4.094 38.358C3.86067 38.498 3.67867 38.736 3.548 39.072C3.42667 39.408 3.366 39.87 3.366 40.458C3.366 41.186 3.53867 41.746 3.884 42.138C4.22933 42.5207 4.75667 42.712 5.466 42.712C5.75533 42.712 6.03067 42.684 6.292 42.628C6.56267 42.5627 6.81 42.488 7.034 42.404C7.26733 42.32 7.46333 42.2407 7.622 42.166V43.734C7.29533 43.874 6.922 43.986 6.502 44.07C6.09133 44.1633 5.62 44.21 5.088 44.21ZM15.691 39.296V44H13.927V39.604C13.927 39.4267 13.9036 39.2587 13.857 39.1C13.8103 38.932 13.731 38.7873 13.619 38.666C13.507 38.5353 13.353 38.4373 13.157 38.372C12.961 38.2973 12.709 38.26 12.401 38.26C12.1676 38.26 11.939 38.2833 11.715 38.33C11.5003 38.3767 11.309 38.4373 11.141 38.512V44H9.36297V37.532C9.55897 37.4387 9.7923 37.3453 10.063 37.252C10.3336 37.1587 10.6276 37.0793 10.945 37.014C11.2623 36.9393 11.5796 36.8833 11.897 36.846C12.2236 36.7993 12.5316 36.776 12.821 36.776C13.4743 36.776 14.011 36.8647 14.431 37.042C14.851 37.21 15.1636 37.4807 15.369 37.854C15.5836 38.218 15.691 38.6987 15.691 39.296ZM13.787 37.952C14.0856 37.7 14.4263 37.49 14.809 37.322C15.1916 37.1447 15.593 37.0093 16.013 36.916C16.433 36.8227 16.8343 36.776 17.217 36.776C17.8703 36.776 18.407 36.8647 18.827 37.042C19.247 37.21 19.5596 37.4807 19.765 37.854C19.9796 38.218 20.087 38.6987 20.087 39.296V44H18.323V39.604C18.323 39.4267 18.2996 39.2587 18.253 39.1C18.2063 38.932 18.127 38.7873 18.015 38.666C17.903 38.5353 17.749 38.4373 17.553 38.372C17.357 38.2973 17.105 38.26 16.797 38.26C16.5636 38.26 16.335 38.2927 16.111 38.358C15.8963 38.4233 15.705 38.5213 15.537 38.652L13.787 37.952ZM25.1545 44.196C24.9958 44.196 24.7811 44.1773 24.5105 44.14C24.2491 44.112 23.9785 44.0513 23.6985 43.958C23.4278 43.8647 23.1898 43.7293 22.9845 43.552L23.3905 42.992V46.674H21.6405V38.372C21.6405 38.0733 21.7291 37.8213 21.9065 37.616C22.0931 37.4107 22.3358 37.2473 22.6345 37.126C22.9425 36.9953 23.2831 36.902 23.6565 36.846C24.0391 36.7807 24.4358 36.748 24.8465 36.748C25.5185 36.748 26.1158 36.8647 26.6385 37.098C27.1611 37.3313 27.5765 37.728 27.8845 38.288C28.1925 38.848 28.3465 39.6087 28.3465 40.57C28.3465 41.298 28.2205 41.9373 27.9685 42.488C27.7165 43.0293 27.3525 43.4493 26.8765 43.748C26.4005 44.0467 25.8265 44.196 25.1545 44.196ZM24.7065 42.754C25.1171 42.754 25.4578 42.6747 25.7285 42.516C26.0085 42.3573 26.2138 42.1147 26.3445 41.788C26.4845 41.452 26.5545 41.032 26.5545 40.528C26.5545 40.08 26.5031 39.6833 26.4005 39.338C26.3071 38.9927 26.1298 38.7267 25.8685 38.54C25.6165 38.344 25.2571 38.246 24.7905 38.246C24.3331 38.246 23.9831 38.2927 23.7405 38.386C23.5071 38.4793 23.3905 38.61 23.3905 38.778V42.404C23.5958 42.516 23.8151 42.6047 24.0485 42.67C24.2818 42.726 24.5011 42.754 24.7065 42.754ZM29.502 44V37.63C29.6326 37.546 29.8613 37.434 30.188 37.294C30.524 37.154 30.9113 37.0327 31.35 36.93C31.7886 36.818 32.232 36.762 32.68 36.762C33.016 36.762 33.282 36.79 33.478 36.846C33.6833 36.8927 33.842 36.9533 33.954 37.028V38.372C33.7673 38.344 33.5526 38.3207 33.31 38.302C33.0766 38.2833 32.834 38.2787 32.582 38.288C32.3393 38.288 32.1013 38.2973 31.868 38.316C31.644 38.3347 31.448 38.358 31.28 38.386V44H29.502ZM37.6687 44.21C36.9687 44.21 36.3574 44.07 35.8347 43.79C35.312 43.5007 34.906 43.0807 34.6167 42.53C34.3274 41.9793 34.1827 41.3167 34.1827 40.542C34.1827 39.31 34.4767 38.372 35.0647 37.728C35.662 37.0747 36.4974 36.748 37.5707 36.748C38.3454 36.748 38.966 36.916 39.4327 37.252C39.9087 37.588 40.254 38.0687 40.4687 38.694C40.6927 39.31 40.8 40.0473 40.7907 40.906H35.3307L35.1907 39.702H39.3767L39.0407 40.206C39.022 39.4687 38.8914 38.9413 38.6487 38.624C38.4154 38.2973 38.0374 38.134 37.5147 38.134C37.1974 38.134 36.9174 38.2087 36.6747 38.358C36.4414 38.498 36.2594 38.736 36.1287 39.072C36.0074 39.408 35.9467 39.87 35.9467 40.458C35.9467 41.186 36.1194 41.746 36.4647 42.138C36.81 42.5207 37.3374 42.712 38.0467 42.712C38.336 42.712 38.6114 42.684 38.8727 42.628C39.1434 42.5627 39.3907 42.488 39.6147 42.404C39.848 42.32 40.044 42.2407 40.2027 42.166V43.734C39.876 43.874 39.5027 43.986 39.0827 44.07C38.672 44.1633 38.2007 44.21 37.6687 44.21ZM44.0157 44.21C43.5117 44.21 43.0823 44.154 42.7277 44.042C42.373 43.9393 42.0323 43.8133 41.7057 43.664V42.068C41.9203 42.208 42.1443 42.3433 42.3777 42.474C42.6203 42.5953 42.877 42.6933 43.1477 42.768C43.4277 42.8427 43.7263 42.88 44.0437 42.88C44.417 42.88 44.6923 42.81 44.8697 42.67C45.0563 42.5207 45.1497 42.3433 45.1497 42.138C45.1497 41.942 45.0797 41.7927 44.9397 41.69C44.7997 41.578 44.6177 41.4847 44.3937 41.41C44.1697 41.3353 43.9317 41.2607 43.6797 41.186C43.4463 41.13 43.2083 41.0553 42.9657 40.962C42.7323 40.8687 42.5177 40.7427 42.3217 40.584C42.1257 40.4253 41.967 40.2247 41.8457 39.982C41.7337 39.73 41.6777 39.4267 41.6777 39.072C41.6777 38.652 41.7617 38.2973 41.9297 38.008C42.0977 37.7187 42.317 37.4853 42.5877 37.308C42.8583 37.1307 43.157 37.0047 43.4837 36.93C43.8103 36.846 44.1277 36.804 44.4357 36.804C44.9677 36.8227 45.397 36.888 45.7237 37C46.0503 37.1027 46.3583 37.238 46.6477 37.406L46.6617 38.848C46.335 38.6707 46.0177 38.512 45.7097 38.372C45.4017 38.2227 45.0517 38.148 44.6597 38.148C44.2957 38.148 44.011 38.2133 43.8057 38.344C43.6097 38.4653 43.5117 38.638 43.5117 38.862C43.5117 39.058 43.5723 39.2167 43.6937 39.338C43.815 39.4593 43.9737 39.5527 44.1697 39.618C44.3657 39.6833 44.5803 39.7487 44.8137 39.814C45.047 39.8793 45.2897 39.954 45.5417 40.038C45.7937 40.1127 46.027 40.2247 46.2417 40.374C46.4563 40.5233 46.629 40.724 46.7597 40.976C46.8997 41.2187 46.9697 41.5453 46.9697 41.956C46.9603 42.4973 46.8157 42.936 46.5357 43.272C46.2557 43.5987 45.887 43.8367 45.4297 43.986C44.9817 44.1353 44.5103 44.21 44.0157 44.21ZM50.7965 44.21C50.4045 44.21 50.0312 44.1727 49.6765 44.098C49.3219 44.0233 49.0045 43.902 48.7245 43.734C48.4445 43.5567 48.2205 43.3187 48.0525 43.02C47.8939 42.712 47.8145 42.3293 47.8145 41.872C47.8145 41.396 47.9125 40.9947 48.1085 40.668C48.3045 40.332 48.5892 40.08 48.9625 39.912C49.3452 39.7347 49.8119 39.646 50.3625 39.646C50.6985 39.646 51.0112 39.6787 51.3005 39.744C51.5899 39.8 51.8512 39.8793 52.0845 39.982C52.3179 40.0847 52.5092 40.1967 52.6585 40.318L52.7845 41.312C52.5885 41.1813 52.3365 41.0787 52.0285 41.004C51.7299 40.92 51.4032 40.878 51.0485 40.878C50.5539 40.878 50.1852 40.9573 49.9425 41.116C49.6999 41.2747 49.5785 41.522 49.5785 41.858C49.5785 42.0913 49.6439 42.2873 49.7745 42.446C49.9052 42.5953 50.0732 42.712 50.2785 42.796C50.4839 42.8707 50.6985 42.908 50.9225 42.908C51.4359 42.908 51.8045 42.8753 52.0285 42.81C52.2619 42.7353 52.3785 42.5813 52.3785 42.348V39.562C52.3785 39.1047 52.2339 38.7733 51.9445 38.568C51.6552 38.3533 51.2492 38.246 50.7265 38.246C50.3252 38.246 49.9145 38.316 49.4945 38.456C49.0745 38.5867 48.7339 38.7593 48.4725 38.974V37.364C48.7245 37.2053 49.1025 37.0653 49.6065 36.944C50.1105 36.8227 50.6519 36.762 51.2305 36.762C51.4732 36.762 51.7299 36.7853 52.0005 36.832C52.2712 36.8787 52.5279 36.9533 52.7705 37.056C53.0225 37.1587 53.2512 37.3033 53.4565 37.49C53.6619 37.6673 53.8252 37.896 53.9465 38.176C54.0679 38.4467 54.1285 38.778 54.1285 39.17V42.516C54.1285 42.9547 53.9885 43.3 53.7085 43.552C53.4285 43.7947 53.0412 43.9627 52.5465 44.056C52.0519 44.1587 51.4685 44.21 50.7965 44.21ZM57.7562 44.21C57.2522 44.21 56.8229 44.154 56.4682 44.042C56.1136 43.9393 55.7729 43.8133 55.4462 43.664V42.068C55.6609 42.208 55.8849 42.3433 56.1182 42.474C56.3609 42.5953 56.6176 42.6933 56.8882 42.768C57.1682 42.8427 57.4669 42.88 57.7842 42.88C58.1576 42.88 58.4329 42.81 58.6102 42.67C58.7969 42.5207 58.8902 42.3433 58.8902 42.138C58.8902 41.942 58.8202 41.7927 58.6802 41.69C58.5402 41.578 58.3582 41.4847 58.1342 41.41C57.9102 41.3353 57.6722 41.2607 57.4202 41.186C57.1869 41.13 56.9489 41.0553 56.7062 40.962C56.4729 40.8687 56.2582 40.7427 56.0622 40.584C55.8662 40.4253 55.7076 40.2247 55.5862 39.982C55.4742 39.73 55.4182 39.4267 55.4182 39.072C55.4182 38.652 55.5022 38.2973 55.6702 38.008C55.8382 37.7187 56.0576 37.4853 56.3282 37.308C56.5989 37.1307 56.8976 37.0047 57.2242 36.93C57.5509 36.846 57.8682 36.804 58.1762 36.804C58.7082 36.8227 59.1376 36.888 59.4642 37C59.7909 37.1027 60.0989 37.238 60.3882 37.406L60.4022 38.848C60.0756 38.6707 59.7582 38.512 59.4502 38.372C59.1422 38.2227 58.7922 38.148 58.4002 38.148C58.0362 38.148 57.7516 38.2133 57.5462 38.344C57.3502 38.4653 57.2522 38.638 57.2522 38.862C57.2522 39.058 57.3129 39.2167 57.4342 39.338C57.5556 39.4593 57.7142 39.5527 57.9102 39.618C58.1062 39.6833 58.3209 39.7487 58.5542 39.814C58.7876 39.8793 59.0302 39.954 59.2822 40.038C59.5342 40.1127 59.7676 40.2247 59.9822 40.374C60.1969 40.5233 60.3696 40.724 60.5002 40.976C60.6402 41.2187 60.7102 41.5453 60.7102 41.956C60.7009 42.4973 60.5562 42.936 60.2762 43.272C59.9962 43.5987 59.6276 43.8367 59.1702 43.986C58.7222 44.1353 58.2509 44.21 57.7562 44.21Z" fill="black"/>
<path fill-rule="evenodd" clip-rule="evenodd" d="M74.1107 9.4634C74.6814 10.5281 74.4711 10.829 72.2451 12.131C69.0015 14.0283 65.1702 18.1938 64.3385 20.7272C62.9284 25.021 66.0791 28.8879 70.9115 28.7952C73.5459 28.7445 74.4153 27.9809 71 27.4089C70 27.2415 66.9825 26.0845 69 22.1889C70.0134 20.2333 72.6896 18.4725 74.7761 17.5232C76.0833 16.9291 78.7247 16.0247 79.4221 16.9763C80.4087 18.3238 81.8293 12.8324 80.8965 10.7887C80.5226 9.97067 75.2918 9.46573 75.4501 9.30713C75.852 8.90656 80.2802 10.1963 80.8965 10.7887C81.1739 11.0564 82.7142 12.4855 81.5512 14.0055C80.3906 15.5233 79.4326 17.0544 79.4221 17.4095C79.4122 17.764 79.0354 17.5693 78.5857 16.9763C77.7989 15.9396 77.6517 15.9606 74.7761 17.5232C71.9186 19.0754 67.3578 23.3878 67.9489 23.9779C68.1031 24.1324 69.4694 21.3788 70.9115 19.9398C72.3537 18.5002 74.3946 16.9956 75.4501 16.451C77.2142 15.5402 77.3678 17.1192 78.0027 17.9862C78.9659 19.301 79.0851 19.2375 80.8965 16.451C81.7826 15.0883 83.1763 13.2563 83.9934 12.3805L85.4789 10.7887L83.1903 9.8284C81.9309 9.30072 79.2288 8.73222 77.1844 8.56605C73.5739 8.27218 73.4857 8.29783 74.1107 9.4634ZM64.0014 22.9089C64.3437 23.5468 68.561 32.724 69.4991 33.2085C71.5068 34.2446 73.127 29.1908 73.127 28.4089C73.127 28.0882 67.9967 27.4089 67.5002 27.4089C67.0037 27.4089 69.3847 32.2669 68.5815 31.4651C74.1107 36.9845 64.5002 30.9089 64.0014 22.9089Z" fill="black"/>
<path d="M74.7761 17.5232C72.6896 18.4725 70.0134 20.2333 69 22.1889C66.9825 26.0845 70 27.2415 71 27.4089C74.4153 27.9809 73.5459 28.7445 70.9115 28.7952C66.0791 28.8879 62.9284 25.021 64.3385 20.7272C65.1702 18.1938 69.0015 14.0283 72.2451 12.131C74.4711 10.829 74.6814 10.5281 74.1107 9.4634C73.4857 8.29783 73.5739 8.27218 77.1844 8.56605C79.2288 8.73222 81.9309 9.30072 83.1903 9.8284L85.4789 10.7887L83.9934 12.3805C83.1763 13.2563 81.7826 15.0883 80.8965 16.451C79.0851 19.2375 78.9659 19.301 78.0027 17.9862C77.3678 17.1192 77.2142 15.5402 75.4501 16.451C74.3946 16.9956 72.3537 18.5002 70.9115 19.9398C69.4694 21.3788 68.1031 24.1324 67.9489 23.9779C67.3578 23.3878 71.9186 19.0754 74.7761 17.5232ZM74.7761 17.5232C76.0833 16.9291 78.7247 16.0247 79.4221 16.9763C80.4087 18.3238 81.8293 12.8324 80.8965 10.7887M74.7761 17.5232C77.6517 15.9606 77.7989 15.9396 78.5857 16.9763C79.0354 17.5693 79.4122 17.764 79.4221 17.4095C79.4326 17.0544 80.3906 15.5233 81.5512 14.0055C82.7142 12.4855 81.1739 11.0564 80.8965 10.7887M80.8965 10.7887C80.5226 9.97067 75.2918 9.46573 75.4501 9.30713C75.852 8.90656 80.2802 10.1963 80.8965 10.7887ZM64.0014 22.9089C64.3437 23.5468 68.561 32.724 69.4991 33.2085C71.5068 34.2446 73.127 29.1908 73.127 28.4089C73.127 28.0882 67.9967 27.4089 67.5002 27.4089C67.0037 27.4089 69.3847 32.2669 68.5815 31.4651C74.1107 36.9845 64.5002 30.9089 64.0014 22.9089Z" stroke="black" stroke-width="1.5"/>
<g filter="url(#filter0_d_1170_1908)">
<rect x="74" y="15.2715" width="8.94758" height="15.4549" rx="2" transform="rotate(-21.4466 74 15.2715)" fill="#E3E3E3"/>
</g>
<g filter="url(#filter1_d_1170_1908)">
<path fill-rule="evenodd" clip-rule="evenodd" d="M86.3683 32.5366C85.7976 31.4719 86.0079 31.171 88.2339 29.869C91.4775 27.9717 95.3088 23.8062 96.1405 21.2728C97.5506 16.979 94.3999 13.112 89.5675 13.2048C86.9331 13.2555 86.0637 14.0191 89.479 14.5911C90.479 14.7585 93.4965 15.9155 91.479 19.811C90.4656 21.7667 87.7894 23.5275 85.7029 24.4768C84.3957 25.0709 81.7543 25.9753 81.0569 25.0237C80.0703 23.6762 78.6497 29.1676 79.5826 31.2113C79.9564 32.0293 85.1872 32.5343 85.0289 32.6929C84.627 33.0934 80.1988 31.8037 79.5826 31.2113C79.3051 30.9436 77.7648 29.5145 78.9278 27.9944C80.0884 26.4767 81.0464 24.9455 81.0569 24.5905C81.0668 24.2359 81.4436 24.4307 81.8933 25.0237C82.6801 26.0604 82.8273 26.0394 85.7029 24.4768C88.5604 22.9246 93.1212 18.6122 92.5301 18.0221C92.3759 17.8676 91.0097 20.6212 89.5675 22.0602C88.1253 23.4998 86.0844 25.0044 85.0289 25.549C83.2648 26.4598 83.1112 24.8808 82.4763 24.0138C81.5131 22.699 81.3939 22.7625 79.5826 25.549C78.6964 26.9117 77.3027 28.7437 76.4856 29.6195L75.0001 31.2113L77.2887 32.1716C78.5481 32.6993 81.2502 33.2678 83.2946 33.4339C86.9051 33.7278 86.9933 33.7022 86.3683 32.5366ZM96.4776 19.0911C96.1353 18.4532 91.918 9.276 90.9799 8.79147C88.9723 7.75534 87.352 12.8092 87.352 13.5911C87.352 13.9117 92.4823 14.5911 92.9788 14.5911C93.4753 14.5911 91.0944 9.73313 91.8975 10.5349C86.3683 5.01548 95.9788 11.0911 96.4776 19.0911Z" fill="#198A68"/>
<path d="M85.7029 24.4768C87.7894 23.5275 90.4656 21.7667 91.479 19.811C93.4965 15.9155 90.479 14.7585 89.479 14.5911C86.0637 14.0191 86.9331 13.2555 89.5675 13.2048C94.3999 13.112 97.5506 16.979 96.1405 21.2728C95.3088 23.8062 91.4775 27.9717 88.2339 29.869C86.0079 31.171 85.7976 31.4719 86.3683 32.5366C86.9933 33.7022 86.9051 33.7278 83.2946 33.4339C81.2502 33.2678 78.5481 32.6993 77.2887 32.1716L75.0001 31.2113L76.4856 29.6195C77.3027 28.7437 78.6964 26.9117 79.5826 25.549C81.3939 22.7625 81.5131 22.699 82.4763 24.0138C83.1112 24.8808 83.2648 26.4598 85.0289 25.549C86.0844 25.0044 88.1253 23.4998 89.5675 22.0602C91.0097 20.6212 92.3759 17.8676 92.5301 18.0221C93.1212 18.6122 88.5604 22.9246 85.7029 24.4768ZM85.7029 24.4768C84.3957 25.0709 81.7543 25.9753 81.0569 25.0237C80.0703 23.6762 78.6497 29.1676 79.5826 31.2113M85.7029 24.4768C82.8273 26.0394 82.6801 26.0604 81.8933 25.0237C81.4436 24.4307 81.0668 24.2359 81.0569 24.5905C81.0464 24.9455 80.0884 26.4767 78.9278 27.9944C77.7648 29.5145 79.3051 30.9436 79.5826 31.2113M79.5826 31.2113C79.9564 32.0293 85.1872 32.5343 85.0289 32.6929C84.627 33.0934 80.1988 31.8037 79.5826 31.2113ZM96.4776 19.0911C96.1353 18.4532 91.918 9.276 90.9799 8.79147C88.9723 7.75534 87.352 12.8092 87.352 13.5911C87.352 13.9117 92.4823 14.5911 92.9788 14.5911C93.4753 14.5911 91.0944 9.73313 91.8975 10.5349C86.3683 5.01548 95.9788 11.0911 96.4776 19.0911Z" stroke="#198A68" stroke-width="1.5"/>
</g>
<path d="M9.856 31.48C8.59733 31.48 7.43467 31.3413 6.368 31.064C5.32267 30.7867 4.416 30.328 3.648 29.688C2.88 29.0267 2.272 28.1307 1.824 27C1.39733 25.8693 1.184 24.4613 1.184 22.776C1.184 20.152 1.824 18.0827 3.104 16.568C4.40533 15.0533 6.34667 14.296 8.928 14.296C9.26933 14.296 9.71733 14.328 10.272 14.392C10.8267 14.4347 11.4027 14.5627 12 14.776C12.5973 14.9893 13.1307 15.352 13.6 15.864L12.64 17.336V8.152H17.376V26.776C17.376 27.5653 17.1627 28.2587 16.736 28.856C16.3093 29.432 15.7333 29.912 15.008 30.296C14.304 30.68 13.504 30.968 12.608 31.16C11.712 31.3733 10.7947 31.48 9.856 31.48ZM10.048 27.48C10.816 27.48 11.4347 27.384 11.904 27.192C12.3947 26.9787 12.64 26.6693 12.64 26.264V18.808C12.256 18.5947 11.84 18.4347 11.392 18.328C10.9653 18.2 10.5493 18.136 10.144 18.136C9.248 18.136 8.49067 18.2853 7.872 18.584C7.25333 18.8827 6.784 19.384 6.464 20.088C6.16533 20.792 6.016 21.7413 6.016 22.936C6.016 23.8747 6.144 24.6853 6.4 25.368C6.656 26.0293 7.072 26.552 7.648 26.936C8.24533 27.2987 9.04533 27.48 10.048 27.48ZM20.268 31V15.032H25.036L25.068 31H20.268ZM20.172 12.6V8.92H25.1V12.6H20.172ZM50.467 31.48C49.315 31.48 48.323 31.352 47.491 31.096C46.6803 30.8613 45.9123 30.5947 45.187 30.296V26.104C45.635 26.4027 46.1363 26.712 46.691 27.032C47.2457 27.3307 47.8537 27.576 48.515 27.768C49.1977 27.96 49.9123 28.056 50.659 28.056C51.427 28.056 51.9603 27.928 52.259 27.672C52.579 27.3947 52.739 27.064 52.739 26.68C52.739 26.3173 52.579 26.0293 52.259 25.816C51.939 25.5813 51.523 25.3893 51.011 25.24C50.499 25.0907 49.955 24.952 49.379 24.824C48.867 24.7173 48.355 24.5573 47.843 24.344C47.331 24.1093 46.8723 23.8 46.467 23.416C46.0617 23.032 45.731 22.5627 45.475 22.008C45.2403 21.432 45.123 20.7387 45.123 19.928C45.123 18.8827 45.3257 18.0187 45.731 17.336C46.1363 16.632 46.6697 16.0667 47.331 15.64C47.9923 15.2133 48.707 14.9147 49.475 14.744C50.243 14.552 50.9897 14.4667 51.715 14.488C53.0377 14.5307 54.083 14.68 54.851 14.936C55.6403 15.1707 56.355 15.48 56.995 15.864V19.608C56.2697 19.2027 55.5443 18.8293 54.819 18.488C54.115 18.1253 53.3043 17.944 52.387 17.944C51.555 17.944 50.9577 18.072 50.595 18.328C50.2323 18.584 50.051 18.9253 50.051 19.352C50.051 19.7573 50.1683 20.0773 50.403 20.312C50.659 20.5467 50.9897 20.7387 51.395 20.888C51.8003 21.016 52.2483 21.144 52.739 21.272C53.2723 21.4 53.8163 21.56 54.371 21.752C54.947 21.9227 55.4803 22.1787 55.971 22.52C56.483 22.84 56.8883 23.2987 57.187 23.896C57.507 24.472 57.667 25.24 57.667 26.2C57.6457 27.5013 57.2937 28.5467 56.611 29.336C55.9283 30.104 55.043 30.6587 53.955 31C52.8883 31.32 51.7257 31.48 50.467 31.48Z" fill="black"/>
<path d="M35.3122 31.48C34.4162 31.48 33.5202 31.416 32.6242 31.288C31.7496 31.1813 30.9496 30.9787 30.2242 30.68C29.5202 30.36 28.9549 29.9333 28.5282 29.4C28.1016 28.8453 27.8882 28.1307 27.8882 27.256V8.824H32.5602V17.656L31.6642 16.152C32.0482 15.704 32.5389 15.352 33.1362 15.096C33.7336 14.8187 34.3416 14.6267 34.9602 14.52C35.5789 14.4133 36.0909 14.36 36.4962 14.36C38.8856 14.36 40.6989 15.0853 41.9362 16.536C43.1949 17.9653 43.8242 20.0667 43.8242 22.84C43.8242 24.4613 43.6109 25.8267 43.1842 26.936C42.7576 28.0453 42.1603 28.9307 41.3923 29.592C40.6242 30.2533 39.7282 30.7333 38.7042 31.032C37.6802 31.3307 36.5496 31.48 35.3122 31.48ZM35.2482 27.512C36.1869 27.512 36.9336 27.3307 37.4882 26.968C38.0429 26.584 38.4376 26.0613 38.6722 25.4C38.9282 24.7387 39.0562 23.9813 39.0562 23.128C39.0562 21.912 38.8962 20.9413 38.5762 20.216C38.2562 19.4907 37.8189 18.968 37.2642 18.648C36.7096 18.328 36.0696 18.168 35.3442 18.168C34.9176 18.168 34.4482 18.2213 33.9362 18.328C33.4242 18.4347 32.9656 18.6053 32.5602 18.84V26.008C32.5602 26.392 32.6776 26.6907 32.9122 26.904C33.1469 27.1173 33.4669 27.2773 33.8722 27.384C34.2989 27.4693 34.7576 27.512 35.2482 27.512Z" fill="#198A68"/>
<defs>
<filter id="filter0_d_1170_1908" x="73.5923" y="12.5923" width="14.7944" height="19.4718" filterUnits="userSpaceOnUse" color-interpolation-filters="sRGB">
<feFlood flood-opacity="0" result="BackgroundImageFix"/>
<feColorMatrix in="SourceAlpha" type="matrix" values="0 0 0 0 0 0 0 0 0 0 0 0 0 0 0 0 0 0 127 0" result="hardAlpha"/>
<feOffset dy="2"/>
<feGaussianBlur stdDeviation="0.5"/>
<feComposite in2="hardAlpha" operator="out"/>
<feColorMatrix type="matrix" values="0 0 0 0 0 0 0 0 0 0 0 0 0 0 0 0 0 0 0.46 0"/>
<feBlend mode="normal" in2="BackgroundImageFix" result="effect1_dropShadow_1170_1908"/>
<feBlend mode="normal" in="SourceGraphic" in2="effect1_dropShadow_1170_1908" result="shape"/>
</filter>
<filter id="filter1_d_1170_1908" x="71.7176" y="6.65954" width="27.5114" height="30.6817" filterUnits="userSpaceOnUse" color-interpolation-filters="sRGB">
<feFlood flood-opacity="0" result="BackgroundImageFix"/>
<feColorMatrix in="SourceAlpha" type="matrix" values="0 0 0 0 0 0 0 0 0 0 0 0 0 0 0 0 0 0 127 0" result="hardAlpha"/>
<feOffset dy="1"/>
<feGaussianBlur stdDeviation="1"/>
<feComposite in2="hardAlpha" operator="out"/>
<feColorMatrix type="matrix" values="0 0 0 0 0 0 0 0 0 0 0 0 0 0 0 0 0 0 0.25 0"/>
<feBlend mode="normal" in2="BackgroundImageFix" result="effect1_dropShadow_1170_1908"/>
<feBlend mode="normal" in="SourceGraphic" in2="effect1_dropShadow_1170_1908" result="shape"/>
</filter>
</defs>
</svg>
