<svg width="33" height="36" viewBox="0 0 33 36" fill="none" xmlns="http://www.w3.org/2000/svg">
<g filter="url(#filter0_d_1648_1230)">
<path d="M27.7857 15.4375H26.1786V10.7969C26.1786 5.3957 21.6116 1 16 1C10.3884 1 5.82143 5.3957 5.82143 10.7969V15.4375H4.21429C2.43973 15.4375 1 16.8232 1 18.5312L1 30.9063C1 32.6143 2.43973 34 4.21429 34H27.7857C29.5603 34 31 32.6143 31 30.9063V18.5312C31 16.8232 29.5603 15.4375 27.7857 15.4375ZM20.8214 15.4375L11.1786 15.4375V10.7969C11.1786 8.23809 13.3415 6.15625 16 6.15625C18.6585 6.15625 20.8214 8.23809 20.8214 10.7969V15.4375Z" fill="black"/>
<path d="M27.7857 15.4375H26.1786V10.7969C26.1786 5.3957 21.6116 1 16 1C10.3884 1 5.82143 5.3957 5.82143 10.7969V15.4375H4.21429C2.43973 15.4375 1 16.8232 1 18.5312L1 30.9063C1 32.6143 2.43973 34 4.21429 34H27.7857C29.5603 34 31 32.6143 31 30.9063V18.5312C31 16.8232 29.5603 15.4375 27.7857 15.4375ZM20.8214 15.4375L11.1786 15.4375V10.7969C11.1786 8.23809 13.3415 6.15625 16 6.15625C18.6585 6.15625 20.8214 8.23809 20.8214 10.7969V15.4375Z" fill="black"/>
</g>
<path fill-rule="evenodd" clip-rule="evenodd" d="M12.7073 19.4606C12.973 19.9257 12.8751 20.0571 11.8387 20.6259C10.3286 21.4547 8.54484 23.2743 8.15758 24.381C7.50109 26.2566 8.96799 27.9458 11.2178 27.9053C12.4443 27.8831 12.8491 27.5496 11.259 27.2997C10.7934 27.2266 9.38855 26.7212 10.3279 25.0195C10.7997 24.1652 12.0456 23.396 13.0171 22.9814C13.6257 22.7218 14.8554 22.3268 15.1801 22.7425C15.6395 23.3311 16.3009 20.9323 15.8666 20.0396C15.6925 19.6822 13.2572 19.4616 13.3309 19.3924C13.518 19.2174 15.5796 19.7808 15.8666 20.0396C15.9957 20.1565 16.7129 20.7807 16.1714 21.4448C15.631 22.1077 15.185 22.7766 15.1801 22.9317C15.1755 23.0866 15.0001 23.0015 14.7907 22.7425C14.4244 22.2896 14.3559 22.2988 13.0171 22.9814C11.6867 23.6594 9.56329 25.5432 9.8385 25.8009C9.9103 25.8684 10.5464 24.6656 11.2178 24.037C11.8893 23.4081 12.8395 22.7509 13.3309 22.513C14.1522 22.1151 14.2237 22.8049 14.5193 23.1836C14.9678 23.758 15.0232 23.7302 15.8666 22.513C16.2791 21.9177 16.928 21.1175 17.3084 20.7349L18 20.0396L16.9345 19.6201C16.3482 19.3896 15.0901 19.1412 14.1383 19.0686C12.4574 18.9403 12.4163 18.9515 12.7073 19.4606ZM8.00064 25.334C8.16 25.6127 10.1235 29.6215 10.5603 29.8332C11.495 30.2858 12.2493 28.0781 12.2493 27.7366C12.2493 27.5965 9.86078 27.2997 9.62962 27.2997C9.39847 27.2997 10.507 29.4218 10.133 29.0716C12.7073 31.4826 8.2329 28.8286 8.00064 25.334Z" fill="white"/>
<path d="M13.0171 22.9814C12.0456 23.396 10.7997 24.1652 10.3279 25.0195C9.38855 26.7212 10.7934 27.2266 11.259 27.2997C12.8491 27.5496 12.4443 27.8831 11.2178 27.9053C8.96799 27.9458 7.50109 26.2566 8.15758 24.381C8.54484 23.2743 10.3286 21.4547 11.8387 20.6259C12.8751 20.0571 12.973 19.9257 12.7073 19.4606C12.4163 18.9515 12.4574 18.9403 14.1383 19.0686C15.0901 19.1412 16.3482 19.3896 16.9345 19.6201L18 20.0396L17.3084 20.7349C16.928 21.1175 16.2791 21.9177 15.8666 22.513C15.0232 23.7302 14.9678 23.758 14.5193 23.1836C14.2237 22.8049 14.1522 22.1151 13.3309 22.513C12.8395 22.7509 11.8893 23.4081 11.2178 24.037C10.5464 24.6656 9.9103 25.8684 9.8385 25.8009C9.56329 25.5432 11.6867 23.6594 13.0171 22.9814ZM13.0171 22.9814C13.6257 22.7218 14.8554 22.3268 15.1801 22.7425C15.6395 23.3311 16.3009 20.9323 15.8666 20.0396M13.0171 22.9814C14.3559 22.2988 14.4244 22.2896 14.7907 22.7425C15.0001 23.0015 15.1755 23.0866 15.1801 22.9317C15.185 22.7766 15.631 22.1077 16.1714 21.4448C16.7129 20.7807 15.9957 20.1565 15.8666 20.0396M15.8666 20.0396C15.6925 19.6822 13.2572 19.4616 13.3309 19.3924C13.518 19.2174 15.5796 19.7808 15.8666 20.0396ZM8.00064 25.334C8.16 25.6127 10.1235 29.6215 10.5603 29.8332C11.495 30.2858 12.2493 28.0781 12.2493 27.7366C12.2493 27.5965 9.86078 27.2997 9.62962 27.2997C9.39847 27.2997 10.507 29.4218 10.133 29.0716C12.7073 31.4826 8.2329 28.8286 8.00064 25.334Z" stroke="white" stroke-width="1.5"/>
<g filter="url(#filter1_d_1648_1230)">
<path fill-rule="evenodd" clip-rule="evenodd" d="M19.2927 30.5394C19.027 30.0743 19.1249 29.9429 20.1613 29.3741C21.6714 28.5453 23.4552 26.7257 23.8424 25.619C24.4989 23.7434 23.032 22.0542 20.7822 22.0947C19.5557 22.1169 19.1509 22.4504 20.741 22.7003C21.2066 22.7734 22.6114 23.2788 21.6721 24.9805C21.2003 25.8348 19.9544 26.604 18.9829 27.0186C18.3743 27.2782 17.1446 27.6732 16.8199 27.2575C16.3605 26.6689 15.6991 29.0677 16.1334 29.9604C16.3075 30.3178 18.7428 30.5384 18.6691 30.6076C18.482 30.7826 16.4204 30.2192 16.1334 29.9604C16.0043 29.8435 15.2871 29.2193 15.8286 28.5552C16.369 27.8922 16.815 27.2234 16.8199 27.0683C16.8245 26.9134 16.9999 26.9985 17.2093 27.2575C17.5756 27.7104 17.6441 27.7012 18.9829 27.0186C20.3133 26.3406 22.4367 24.4568 22.1615 24.1991C22.0897 24.1316 21.4536 25.3344 20.7822 25.963C20.1107 26.5919 19.1605 27.2491 18.6691 27.487C17.8478 27.8849 17.7763 27.1951 17.4807 26.8164C17.0322 26.242 16.9768 26.2698 16.1334 27.487C15.7209 28.0823 15.072 28.8825 14.6916 29.2651L14 29.9604L15.0655 30.3799C15.6518 30.6104 16.9099 30.8588 17.8617 30.9314C19.5426 31.0597 19.5837 31.0485 19.2927 30.5394ZM23.9994 24.666C23.84 24.3873 21.8765 20.3785 21.4397 20.1668C20.5051 19.7142 19.7507 21.9219 19.7507 22.2634C19.7507 22.4035 22.1392 22.7003 22.3704 22.7003C22.6015 22.7003 21.493 20.5782 21.867 20.9284C19.2927 18.5174 23.7671 21.1714 23.9994 24.666Z" fill="white"/>
<path d="M18.9829 27.0186C19.9544 26.604 21.2003 25.8348 21.6721 24.9805C22.6114 23.2788 21.2066 22.7734 20.741 22.7003C19.1509 22.4504 19.5557 22.1169 20.7822 22.0947C23.032 22.0542 24.4989 23.7434 23.8424 25.619C23.4552 26.7257 21.6714 28.5453 20.1613 29.3741C19.1249 29.9429 19.027 30.0743 19.2927 30.5394C19.5837 31.0485 19.5426 31.0597 17.8617 30.9314C16.9099 30.8588 15.6518 30.6104 15.0655 30.3799L14 29.9604L14.6916 29.2651C15.072 28.8825 15.7209 28.0823 16.1334 27.487C16.9768 26.2698 17.0322 26.242 17.4807 26.8164C17.7763 27.1951 17.8478 27.8849 18.6691 27.487C19.1605 27.2491 20.1107 26.5919 20.7822 25.963C21.4536 25.3344 22.0897 24.1316 22.1615 24.1991C22.4367 24.4568 20.3133 26.3406 18.9829 27.0186ZM18.9829 27.0186C18.3743 27.2782 17.1446 27.6732 16.8199 27.2575C16.3605 26.6689 15.6991 29.0677 16.1334 29.9604M18.9829 27.0186C17.6441 27.7012 17.5756 27.7104 17.2093 27.2575C16.9999 26.9985 16.8245 26.9134 16.8199 27.0683C16.815 27.2234 16.369 27.8922 15.8286 28.5552C15.2871 29.2193 16.0043 29.8435 16.1334 29.9604M16.1334 29.9604C16.3075 30.3178 18.7428 30.5384 18.6691 30.6076C18.482 30.7826 16.4204 30.2192 16.1334 29.9604ZM23.9994 24.666C23.84 24.3873 21.8765 20.3785 21.4397 20.1668C20.5051 19.7142 19.7507 21.9219 19.7507 22.2634C19.7507 22.4035 22.1392 22.7003 22.3704 22.7003C22.6015 22.7003 21.493 20.5782 21.867 20.9284C19.2927 18.5174 23.7671 21.1714 23.9994 24.666Z" stroke="white" stroke-width="1.5"/>
</g>
<defs>
<filter id="filter0_d_1648_1230" x="0.5" y="0.5" width="32" height="35" filterUnits="userSpaceOnUse" color-interpolation-filters="sRGB">
<feFlood flood-opacity="0" result="BackgroundImageFix"/>
<feColorMatrix in="SourceAlpha" type="matrix" values="0 0 0 0 0 0 0 0 0 0 0 0 0 0 0 0 0 0 127 0" result="hardAlpha"/>
<feOffset dx="0.5" dy="0.5"/>
<feGaussianBlur stdDeviation="0.5"/>
<feComposite in2="hardAlpha" operator="out"/>
<feColorMatrix type="matrix" values="0 0 0 0 0 0 0 0 0 0 0 0 0 0 0 0 0 0 0.25 0"/>
<feBlend mode="normal" in2="BackgroundImageFix" result="effect1_dropShadow_1648_1230"/>
<feBlend mode="normal" in="SourceGraphic" in2="effect1_dropShadow_1648_1230" result="shape"/>
</filter>
<filter id="filter1_d_1648_1230" x="10.6638" y="18.25" width="16.0862" height="16.5002" filterUnits="userSpaceOnUse" color-interpolation-filters="sRGB">
<feFlood flood-opacity="0" result="BackgroundImageFix"/>
<feColorMatrix in="SourceAlpha" type="matrix" values="0 0 0 0 0 0 0 0 0 0 0 0 0 0 0 0 0 0 127 0" result="hardAlpha"/>
<feOffset dy="1"/>
<feGaussianBlur stdDeviation="1"/>
<feComposite in2="hardAlpha" operator="out"/>
<feColorMatrix type="matrix" values="0 0 0 0 0 0 0 0 0 0 0 0 0 0 0 0 0 0 0.25 0"/>
<feBlend mode="normal" in2="BackgroundImageFix" result="effect1_dropShadow_1648_1230"/>
<feBlend mode="normal" in="SourceGraphic" in2="effect1_dropShadow_1648_1230" result="shape"/>
</filter>
</defs>
</svg>
