<svg width="189" height="39" viewBox="0 0 189 39" fill="none" xmlns="http://www.w3.org/2000/svg">
<path d="M6.912 32.48C5.76 32.48 4.768 32.352 3.936 32.096C3.12533 31.8613 2.35733 31.5947 1.632 31.296V27.104C2.08 27.4027 2.58133 27.712 3.136 28.032C3.69067 28.3307 4.29867 28.576 4.96 28.768C5.64267 28.96 6.35733 29.056 7.104 29.056C7.872 29.056 8.40533 28.928 8.704 28.672C9.024 28.3947 9.184 28.064 9.184 27.68C9.184 27.3173 9.024 27.0293 8.704 26.816C8.384 26.5813 7.968 26.3893 7.456 26.24C6.944 26.0907 6.4 25.952 5.824 25.824C5.312 25.7173 4.8 25.5573 4.288 25.344C3.776 25.1093 3.31733 24.8 2.912 24.416C2.50667 24.032 2.176 23.5627 1.92 23.008C1.68533 22.432 1.568 21.7387 1.568 20.928C1.568 19.8827 1.77067 19.0187 2.176 18.336C2.58133 17.632 3.11467 17.0667 3.776 16.64C4.43733 16.2133 5.152 15.9147 5.92 15.744C6.688 15.552 7.43467 15.4667 8.16 15.488C9.48267 15.5307 10.528 15.68 11.296 15.936C12.0853 16.1707 12.8 16.48 13.44 16.864V20.608C12.7147 20.2027 11.9893 19.8293 11.264 19.488C10.56 19.1253 9.74933 18.944 8.832 18.944C8 18.944 7.40267 19.072 7.04 19.328C6.67733 19.584 6.496 19.9253 6.496 20.352C6.496 20.7573 6.61333 21.0773 6.848 21.312C7.104 21.5467 7.43467 21.7387 7.84 21.888C8.24533 22.016 8.69333 22.144 9.184 22.272C9.71733 22.4 10.2613 22.56 10.816 22.752C11.392 22.9227 11.9253 23.1787 12.416 23.52C12.928 23.84 13.3333 24.2987 13.632 24.896C13.952 25.472 14.112 26.24 14.112 27.2C14.0907 28.5013 13.7387 29.5467 13.056 30.336C12.3733 31.104 11.488 31.6587 10.4 32C9.33333 32.32 8.17067 32.48 6.912 32.48ZM23.4375 32.48C21.8162 32.48 20.3762 32.1493 19.1175 31.488C17.8802 30.8053 16.9095 29.8453 16.2055 28.608C15.5228 27.3493 15.1815 25.856 15.1815 24.128C15.1815 21.312 15.8748 19.136 17.2615 17.6C18.6695 16.0427 20.6748 15.264 23.2775 15.264C25.0695 15.264 26.5095 15.648 27.5975 16.416C28.7068 17.184 29.5175 18.304 30.0295 19.776C30.5415 21.248 30.7868 23.04 30.7655 25.152H18.4455L17.9335 22.112H26.8295L26.1255 23.616C26.1042 21.888 25.8588 20.672 25.3895 19.968C24.9202 19.264 24.1522 18.912 23.0855 18.912C22.4882 18.912 21.9442 19.0613 21.4535 19.36C20.9842 19.6587 20.6108 20.16 20.3335 20.864C20.0775 21.5467 19.9495 22.496 19.9495 23.712C19.9495 25.248 20.3122 26.432 21.0375 27.264C21.7842 28.096 22.9682 28.512 24.5895 28.512C25.1868 28.512 25.7735 28.448 26.3495 28.32C26.9468 28.1707 27.5015 28 28.0135 27.808C28.5255 27.616 28.9628 27.4453 29.3255 27.296V31.392C28.5575 31.712 27.6935 31.968 26.7335 32.16C25.7948 32.3733 24.6962 32.48 23.4375 32.48ZM40.2222 32.416C39.0702 32.416 37.9822 32.2453 36.9582 31.904C35.9342 31.5627 35.0276 31.0507 34.2382 30.368C33.4489 29.6853 32.8302 28.8213 32.3822 27.776C31.9342 26.7307 31.7102 25.5147 31.7102 24.128C31.7102 22.656 31.9236 21.376 32.3502 20.288C32.7769 19.1787 33.3636 18.2613 34.1102 17.536C34.8782 16.8107 35.7742 16.2667 36.7982 15.904C37.8222 15.5413 38.9529 15.36 40.1902 15.36C41.0649 15.36 41.9609 15.456 42.8782 15.648C43.8169 15.8187 44.6382 16.064 45.3422 16.384V20.48C44.5956 20.1387 43.8596 19.8613 43.1342 19.648C42.4302 19.4133 41.7049 19.296 40.9582 19.296C39.6142 19.296 38.5262 19.6373 37.6942 20.32C36.8836 20.9813 36.4782 22.0693 36.4782 23.584C36.4782 25.184 36.8409 26.3893 37.5662 27.2C38.2916 28.0107 39.4969 28.416 41.1822 28.416C41.9716 28.416 42.7289 28.2773 43.4542 28C44.2009 27.7227 44.8409 27.4347 45.3742 27.136V31.2C44.6276 31.584 43.8489 31.8827 43.0382 32.096C42.2276 32.3093 41.2889 32.416 40.2222 32.416ZM54.8768 32.48C53.3834 32.48 52.0608 32.2453 50.9088 31.776C49.7568 31.3067 48.8608 30.592 48.2208 29.632C47.5808 28.6507 47.2608 27.3813 47.2608 25.824V15.808H52.0288V25.44C52.0288 26.464 52.2528 27.232 52.7008 27.744C53.1701 28.2347 53.9061 28.48 54.9088 28.48C55.9328 28.48 56.6688 28.2347 57.1168 27.744C57.5648 27.232 57.7888 26.464 57.7888 25.44V15.808H62.2688V25.824C62.2688 28.128 61.6074 29.8133 60.2848 30.88C58.9621 31.9467 57.1594 32.48 54.8768 32.48ZM98.0533 32.48C96.9013 32.48 95.9093 32.352 95.0773 32.096C94.2666 31.8613 93.4986 31.5947 92.7733 31.296V27.104C93.2213 27.4027 93.7226 27.712 94.2773 28.032C94.8319 28.3307 95.4399 28.576 96.1013 28.768C96.7839 28.96 97.4986 29.056 98.2453 29.056C99.0133 29.056 99.5466 28.928 99.8453 28.672C100.165 28.3947 100.325 28.064 100.325 27.68C100.325 27.3173 100.165 27.0293 99.8453 26.816C99.5253 26.5813 99.1093 26.3893 98.5973 26.24C98.0853 26.0907 97.5413 25.952 96.9653 25.824C96.4533 25.7173 95.9413 25.5573 95.4293 25.344C94.9173 25.1093 94.4586 24.8 94.0533 24.416C93.6479 24.032 93.3173 23.5627 93.0613 23.008C92.8266 22.432 92.7093 21.7387 92.7093 20.928C92.7093 19.8827 92.9119 19.0187 93.3173 18.336C93.7226 17.632 94.2559 17.0667 94.9173 16.64C95.5786 16.2133 96.2933 15.9147 97.0613 15.744C97.8293 15.552 98.5759 15.4667 99.3013 15.488C100.624 15.5307 101.669 15.68 102.437 15.936C103.227 16.1707 103.941 16.48 104.581 16.864V20.608C103.856 20.2027 103.131 19.8293 102.405 19.488C101.701 19.1253 100.891 18.944 99.9733 18.944C99.1413 18.944 98.5439 19.072 98.1813 19.328C97.8186 19.584 97.6373 19.9253 97.6373 20.352C97.6373 20.7573 97.7546 21.0773 97.9893 21.312C98.2453 21.5467 98.5759 21.7387 98.9813 21.888C99.3866 22.016 99.8346 22.144 100.325 22.272C100.859 22.4 101.403 22.56 101.957 22.752C102.533 22.9227 103.067 23.1787 103.557 23.52C104.069 23.84 104.475 24.2987 104.773 24.896C105.093 25.472 105.253 26.24 105.253 27.2C105.232 28.5013 104.88 29.5467 104.197 30.336C103.515 31.104 102.629 31.6587 101.541 32C100.475 32.32 99.3119 32.48 98.0533 32.48ZM113.491 32.48C112.509 32.48 111.581 32.384 110.707 32.192C109.853 32.0213 109.096 31.7333 108.435 31.328C107.795 30.9013 107.293 30.336 106.931 29.632C106.568 28.9067 106.387 28.0107 106.387 26.944C106.387 25.9413 106.589 25.0667 106.995 24.32C107.421 23.5733 108.061 22.9973 108.915 22.592C109.768 22.1867 110.845 21.984 112.147 21.984C112.872 21.984 113.576 22.0587 114.259 22.208C114.941 22.3573 115.549 22.56 116.083 22.816C116.637 23.072 117.075 23.3493 117.395 23.648L117.587 25.952C117.16 25.696 116.648 25.4933 116.051 25.344C115.453 25.1947 114.813 25.12 114.131 25.12C113.085 25.12 112.317 25.28 111.827 25.6C111.357 25.8987 111.123 26.3787 111.123 27.04C111.123 27.4453 111.24 27.808 111.475 28.128C111.709 28.448 112.019 28.6933 112.403 28.864C112.808 29.0347 113.224 29.12 113.651 29.12C114.739 29.12 115.496 29.0453 115.923 28.896C116.371 28.7467 116.595 28.448 116.595 28V22.048C116.595 21.0667 116.275 20.3627 115.635 19.936C115.016 19.488 114.131 19.264 112.979 19.264C112.04 19.264 111.091 19.4347 110.131 19.776C109.192 20.096 108.424 20.4907 107.827 20.96V16.736C108.381 16.3947 109.235 16.0747 110.387 15.776C111.56 15.4773 112.872 15.328 114.323 15.328C114.835 15.328 115.4 15.3707 116.019 15.456C116.637 15.5413 117.256 15.7013 117.875 15.936C118.493 16.1493 119.059 16.4693 119.571 16.896C120.104 17.3227 120.531 17.8667 120.851 18.528C121.171 19.1893 121.331 20.0107 121.331 20.992L121.299 28.64C121.299 29.5573 120.989 30.304 120.371 30.88C119.752 31.4347 118.856 31.84 117.683 32.096C116.531 32.352 115.133 32.48 113.491 32.48ZM128.859 32H124.123V9.696H128.859V32ZM138.98 32.48C137.359 32.48 135.919 32.1493 134.66 31.488C133.423 30.8053 132.452 29.8453 131.748 28.608C131.065 27.3493 130.724 25.856 130.724 24.128C130.724 21.312 131.417 19.136 132.804 17.6C134.212 16.0427 136.217 15.264 138.82 15.264C140.612 15.264 142.052 15.648 143.14 16.416C144.249 17.184 145.06 18.304 145.572 19.776C146.084 21.248 146.329 23.04 146.308 25.152H133.988L133.476 22.112H142.372L141.668 23.616C141.647 21.888 141.401 20.672 140.932 19.968C140.463 19.264 139.695 18.912 138.628 18.912C138.031 18.912 137.487 19.0613 136.996 19.36C136.527 19.6587 136.153 20.16 135.876 20.864C135.62 21.5467 135.492 22.496 135.492 23.712C135.492 25.248 135.855 26.432 136.58 27.264C137.327 28.096 138.511 28.512 140.132 28.512C140.729 28.512 141.316 28.448 141.892 28.32C142.489 28.1707 143.044 28 143.556 27.808C144.068 27.616 144.505 27.4453 144.868 27.296V31.392C144.1 31.712 143.236 31.968 142.276 32.16C141.337 32.3733 140.239 32.48 138.98 32.48Z" fill="#198A68"/>
<path d="M65.0395 32V17.504C65.3382 17.248 65.8715 16.96 66.6395 16.64C67.4075 16.2987 68.2822 16 69.2635 15.744C70.2662 15.4667 71.2688 15.328 72.2715 15.328C73.2742 15.328 74.0635 15.4027 74.6395 15.552C75.2155 15.7013 75.6528 15.8933 75.9515 16.128V19.616C75.5888 19.5307 75.1302 19.4667 74.5755 19.424C74.0208 19.3813 73.4448 19.36 72.8475 19.36C72.2502 19.3387 71.6848 19.3387 71.1515 19.36C70.6182 19.3813 70.1702 19.424 69.8075 19.488V32H65.0395ZM84.0525 32.48C82.4312 32.48 80.9912 32.1493 79.7325 31.488C78.4952 30.8053 77.5245 29.8453 76.8205 28.608C76.1378 27.3493 75.7965 25.856 75.7965 24.128C75.7965 21.312 76.4898 19.136 77.8765 17.6C79.2845 16.0427 81.2898 15.264 83.8925 15.264C85.6845 15.264 87.1245 15.648 88.2125 16.416C89.3218 17.184 90.1325 18.304 90.6445 19.776C91.1565 21.248 91.4018 23.04 91.3805 25.152H79.0605L78.5485 22.112H87.4445L86.7405 23.616C86.7192 21.888 86.4738 20.672 86.0045 19.968C85.5352 19.264 84.7672 18.912 83.7005 18.912C83.1032 18.912 82.5592 19.0613 82.0685 19.36C81.5992 19.6587 81.2258 20.16 80.9485 20.864C80.6925 21.5467 80.5645 22.496 80.5645 23.712C80.5645 25.248 80.9272 26.432 81.6525 27.264C82.3992 28.096 83.5832 28.512 85.2045 28.512C85.8018 28.512 86.3885 28.448 86.9645 28.32C87.5618 28.1707 88.1165 28 88.6285 27.808C89.1405 27.616 89.5778 27.4453 89.9405 27.296V31.392C89.1725 31.712 88.3085 31.968 87.3485 32.16C86.4098 32.3733 85.3112 32.48 84.0525 32.48Z" fill="black"/>
<g filter="url(#filter0_d_1170_1891)">
<path d="M183.786 15.4375H182.179V10.7969C182.179 5.3957 177.612 1 172 1C166.388 1 161.821 5.3957 161.821 10.7969V15.4375H160.214C158.44 15.4375 157 16.8232 157 18.5312V30.9063C157 32.6143 158.44 34 160.214 34H183.786C185.56 34 187 32.6143 187 30.9063V18.5312C187 16.8232 185.56 15.4375 183.786 15.4375ZM176.821 15.4375L167.179 15.4375V10.7969C167.179 8.23809 169.342 6.15625 172 6.15625C174.658 6.15625 176.821 8.23809 176.821 10.7969V15.4375Z" fill="#198A68"/>
<path d="M183.786 15.4375H182.179V10.7969C182.179 5.3957 177.612 1 172 1C166.388 1 161.821 5.3957 161.821 10.7969V15.4375H160.214C158.44 15.4375 157 16.8232 157 18.5312V30.9063C157 32.6143 158.44 34 160.214 34H183.786C185.56 34 187 32.6143 187 30.9063V18.5312C187 16.8232 185.56 15.4375 183.786 15.4375ZM176.821 15.4375L167.179 15.4375V10.7969C167.179 8.23809 169.342 6.15625 172 6.15625C174.658 6.15625 176.821 8.23809 176.821 10.7969V15.4375Z" fill="#198A68"/>
</g>
<path fill-rule="evenodd" clip-rule="evenodd" d="M168.707 19.4606C168.973 19.9257 168.875 20.0571 167.839 20.6259C166.329 21.4547 164.545 23.2743 164.158 24.381C163.501 26.2566 164.968 27.9458 167.218 27.9053C168.444 27.8831 168.849 27.5496 167.259 27.2997C166.793 27.2266 165.389 26.7212 166.328 25.0195C166.8 24.1652 168.046 23.396 169.017 22.9814C169.626 22.7218 170.855 22.3268 171.18 22.7425C171.639 23.3311 172.301 20.9323 171.867 20.0396C171.693 19.6822 169.257 19.4616 169.331 19.3924C169.518 19.2174 171.58 19.7808 171.867 20.0396C171.996 20.1565 172.713 20.7807 172.171 21.4448C171.631 22.1077 171.185 22.7766 171.18 22.9317C171.176 23.0866 171 23.0015 170.791 22.7425C170.424 22.2896 170.356 22.2988 169.017 22.9814C167.687 23.6594 165.563 25.5432 165.839 25.8009C165.91 25.8684 166.546 24.6656 167.218 24.037C167.889 23.4081 168.839 22.7509 169.331 22.513C170.152 22.1151 170.224 22.8049 170.519 23.1836C170.968 23.758 171.023 23.7302 171.867 22.513C172.279 21.9177 172.928 21.1175 173.308 20.7349L174 20.0396L172.934 19.6201C172.348 19.3896 171.09 19.1412 170.138 19.0686C168.457 18.9403 168.416 18.9515 168.707 19.4606ZM164.001 25.334C164.16 25.6127 166.124 29.6215 166.56 29.8332C167.495 30.2858 168.249 28.0781 168.249 27.7366C168.249 27.5965 165.861 27.2997 165.63 27.2997C165.398 27.2997 166.507 29.4218 166.133 29.0716C168.707 31.4826 164.233 28.8286 164.001 25.334Z" fill="white"/>
<path d="M169.017 22.9814C168.046 23.396 166.8 24.1652 166.328 25.0195C165.389 26.7212 166.793 27.2266 167.259 27.2997C168.849 27.5496 168.444 27.8831 167.218 27.9053C164.968 27.9458 163.501 26.2566 164.158 24.381C164.545 23.2743 166.329 21.4547 167.839 20.6259C168.875 20.0571 168.973 19.9257 168.707 19.4606C168.416 18.9515 168.457 18.9403 170.138 19.0686C171.09 19.1412 172.348 19.3896 172.934 19.6201L174 20.0396L173.308 20.7349C172.928 21.1175 172.279 21.9177 171.867 22.513C171.023 23.7302 170.968 23.758 170.519 23.1836C170.224 22.8049 170.152 22.1151 169.331 22.513C168.839 22.7509 167.889 23.4081 167.218 24.037C166.546 24.6656 165.91 25.8684 165.839 25.8009C165.563 25.5432 167.687 23.6594 169.017 22.9814ZM169.017 22.9814C169.626 22.7218 170.855 22.3268 171.18 22.7425C171.639 23.3311 172.301 20.9323 171.867 20.0396M169.017 22.9814C170.356 22.2988 170.424 22.2896 170.791 22.7425C171 23.0015 171.176 23.0866 171.18 22.9317C171.185 22.7766 171.631 22.1077 172.171 21.4448C172.713 20.7807 171.996 20.1565 171.867 20.0396M171.867 20.0396C171.693 19.6822 169.257 19.4616 169.331 19.3924C169.518 19.2174 171.58 19.7808 171.867 20.0396ZM164.001 25.334C164.16 25.6127 166.124 29.6215 166.56 29.8332C167.495 30.2858 168.249 28.0781 168.249 27.7366C168.249 27.5965 165.861 27.2997 165.63 27.2997C165.398 27.2997 166.507 29.4218 166.133 29.0716C168.707 31.4826 164.233 28.8286 164.001 25.334Z" stroke="white" stroke-width="1.5"/>
<g filter="url(#filter1_d_1170_1891)">
<path fill-rule="evenodd" clip-rule="evenodd" d="M175.293 30.5394C175.027 30.0743 175.125 29.9429 176.161 29.3741C177.671 28.5453 179.455 26.7257 179.842 25.619C180.499 23.7434 179.032 22.0542 176.782 22.0947C175.556 22.1169 175.151 22.4504 176.741 22.7003C177.207 22.7734 178.611 23.2788 177.672 24.9805C177.2 25.8348 175.954 26.604 174.983 27.0186C174.374 27.2782 173.145 27.6732 172.82 27.2575C172.361 26.6689 171.699 29.0677 172.133 29.9604C172.307 30.3178 174.743 30.5384 174.669 30.6076C174.482 30.7826 172.42 30.2192 172.133 29.9604C172.004 29.8435 171.287 29.2193 171.829 28.5552C172.369 27.8922 172.815 27.2234 172.82 27.0683C172.824 26.9134 173 26.9985 173.209 27.2575C173.576 27.7104 173.644 27.7012 174.983 27.0186C176.313 26.3406 178.437 24.4568 178.161 24.1991C178.09 24.1316 177.454 25.3344 176.782 25.963C176.111 26.5919 175.161 27.2491 174.669 27.487C173.848 27.8849 173.776 27.1951 173.481 26.8164C173.032 26.242 172.977 26.2698 172.133 27.487C171.721 28.0823 171.072 28.8825 170.692 29.2651L170 29.9604L171.066 30.3799C171.652 30.6104 172.91 30.8588 173.862 30.9314C175.543 31.0597 175.584 31.0485 175.293 30.5394ZM179.999 24.666C179.84 24.3873 177.876 20.3785 177.44 20.1668C176.505 19.7142 175.751 21.9219 175.751 22.2634C175.751 22.4035 178.139 22.7003 178.37 22.7003C178.602 22.7003 177.493 20.5782 177.867 20.9284C175.293 18.5174 179.767 21.1714 179.999 24.666Z" fill="white"/>
<path d="M174.983 27.0186C175.954 26.604 177.2 25.8348 177.672 24.9805C178.611 23.2788 177.207 22.7734 176.741 22.7003C175.151 22.4504 175.556 22.1169 176.782 22.0947C179.032 22.0542 180.499 23.7434 179.842 25.619C179.455 26.7257 177.671 28.5453 176.161 29.3741C175.125 29.9429 175.027 30.0743 175.293 30.5394C175.584 31.0485 175.543 31.0597 173.862 30.9314C172.91 30.8588 171.652 30.6104 171.066 30.3799L170 29.9604L170.692 29.2651C171.072 28.8825 171.721 28.0823 172.133 27.487C172.977 26.2698 173.032 26.242 173.481 26.8164C173.776 27.1951 173.848 27.8849 174.669 27.487C175.161 27.2491 176.111 26.5919 176.782 25.963C177.454 25.3344 178.09 24.1316 178.161 24.1991C178.437 24.4568 176.313 26.3406 174.983 27.0186ZM174.983 27.0186C174.374 27.2782 173.145 27.6732 172.82 27.2575C172.361 26.6689 171.699 29.0677 172.133 29.9604M174.983 27.0186C173.644 27.7012 173.576 27.7104 173.209 27.2575C173 26.9985 172.824 26.9134 172.82 27.0683C172.815 27.2234 172.369 27.8922 171.829 28.5552C171.287 29.2193 172.004 29.8435 172.133 29.9604M172.133 29.9604C172.307 30.3178 174.743 30.5384 174.669 30.6076C174.482 30.7826 172.42 30.2192 172.133 29.9604ZM179.999 24.666C179.84 24.3873 177.876 20.3785 177.44 20.1668C176.505 19.7142 175.751 21.9219 175.751 22.2634C175.751 22.4035 178.139 22.7003 178.37 22.7003C178.602 22.7003 177.493 20.5782 177.867 20.9284C175.293 18.5174 179.767 21.1714 179.999 24.666Z" stroke="white" stroke-width="1.5"/>
</g>
<defs>
<filter id="filter0_d_1170_1891" x="156.5" y="0.5" width="32" height="35" filterUnits="userSpaceOnUse" color-interpolation-filters="sRGB">
<feFlood flood-opacity="0" result="BackgroundImageFix"/>
<feColorMatrix in="SourceAlpha" type="matrix" values="0 0 0 0 0 0 0 0 0 0 0 0 0 0 0 0 0 0 127 0" result="hardAlpha"/>
<feOffset dx="0.5" dy="0.5"/>
<feGaussianBlur stdDeviation="0.5"/>
<feComposite in2="hardAlpha" operator="out"/>
<feColorMatrix type="matrix" values="0 0 0 0 0 0 0 0 0 0 0 0 0 0 0 0 0 0 0.25 0"/>
<feBlend mode="normal" in2="BackgroundImageFix" result="effect1_dropShadow_1170_1891"/>
<feBlend mode="normal" in="SourceGraphic" in2="effect1_dropShadow_1170_1891" result="shape"/>
</filter>
<filter id="filter1_d_1170_1891" x="166.664" y="18.25" width="16.0862" height="16.5002" filterUnits="userSpaceOnUse" color-interpolation-filters="sRGB">
<feFlood flood-opacity="0" result="BackgroundImageFix"/>
<feColorMatrix in="SourceAlpha" type="matrix" values="0 0 0 0 0 0 0 0 0 0 0 0 0 0 0 0 0 0 127 0" result="hardAlpha"/>
<feOffset dy="1"/>
<feGaussianBlur stdDeviation="1"/>
<feComposite in2="hardAlpha" operator="out"/>
<feColorMatrix type="matrix" values="0 0 0 0 0 0 0 0 0 0 0 0 0 0 0 0 0 0 0.25 0"/>
<feBlend mode="normal" in2="BackgroundImageFix" result="effect1_dropShadow_1170_1891"/>
<feBlend mode="normal" in="SourceGraphic" in2="effect1_dropShadow_1170_1891" result="shape"/>
</filter>
</defs>
</svg>
